# xmcd CD database file
#
# Track frame offsets:
#	150
#	14249
#	31190
#	48520
#	64572
#	86080
#	96062
#	112436
#	126935
#	145010
#	159353
#	179451
#
# Disc length: 2638 seconds
#
# Revision: 6
# Processed by: cddbd v1.5.2PL0 Copyright (c) Steve Scherf et al.
# Submitted via: CDex 1.51
#
DISCID=a60a4c0c
DTITLE=Eels - Beautiful Freak
DYEAR=1996
DGENRE=Alternative Rock
TTITLE0=Novocaine for the Soul
TTITLE1=Susan's House
TTITLE2=Rags to Rags
TTITLE3=Beautiful Freak
TTITLE4=Not Ready Yet
TTITLE5=My Beloved Monster
TTITLE6=Flower
TTITLE7=Guest List
TTITLE8=Mental
TTITLE9=Spunky
TTITLE10=Your Lucky Day in Hell
TTITLE11=Manchild
EXTD=YEAR: 1996
EXTT0=
EXTT1=
EXTT2=
EXTT3=
EXTT4=
EXTT5=
EXTT6=
EXTT7=
EXTT8=
EXTT9=
EXTT10=
EXTT11=
PLAYORDER=
